<svg xmlns="http://www.w3.org/2000/svg" xmlns:xlink="http://www.w3.org/1999/xlink" width="500" zoomAndPan="magnify" viewBox="0 0 375 374.999991" height="500" preserveAspectRatio="xMidYMid meet" version="1.0"><defs><clipPath id="15ba779b9f"><path d="M -11.226562 -28.847656 L 417.367188 -28.847656 C 421.941406 -28.847656 426.328125 -27.027344 429.5625 -23.792969 C 432.796875 -20.558594 434.617188 -16.171875 434.617188 -11.597656 L 434.617188 379.273438 C 434.617188 383.847656 432.796875 388.234375 429.5625 391.472656 C 426.328125 394.707031 421.941406 396.523438 417.367188 396.523438 L -11.226562 396.523438 C -15.800781 396.523438 -20.1875 394.707031 -23.425781 391.472656 C -26.660156 388.234375 -28.476562 383.847656 -28.476562 379.273438 L -28.476562 -11.597656 C -28.476562 -16.171875 -26.660156 -20.558594 -23.425781 -23.792969 C -20.1875 -27.027344 -15.800781 -28.847656 -11.226562 -28.847656 Z M -11.226562 -28.847656 " clip-rule="nonzero"/></clipPath><clipPath id="8958405024"><path d="M 37.5 47.4375 L 330.75 47.4375 L 330.75 285 L 37.5 285 Z M 37.5 47.4375 " clip-rule="nonzero"/></clipPath><clipPath id="3253a0cddc"><path d="M 202 248 L 276 248 L 276 321.1875 L 202 321.1875 Z M 202 248 " clip-rule="nonzero"/></clipPath><clipPath id="84f40ec220"><path d="M 92 248 L 166 248 L 166 321.1875 L 92 321.1875 Z M 92 248 " clip-rule="nonzero"/></clipPath></defs><g clip-path="url(#15ba779b9f)"><rect x="-37.5" width="450" fill="#ffffff" y="-37.499999" height="449.999989" fill-opacity="1"/></g><g clip-path="url(#8958405024)"><path fill="#64b8b1" d="M 202.449219 284.628906 C 91.457031 284.628906 37.5 263.746094 37.5 220.789062 C 37.5 215.753906 41.601562 211.667969 46.664062 211.667969 C 55.75 211.667969 62.386719 209.082031 66.949219 203.789062 C 77.652344 191.332031 74.300781 167.710938 74.265625 167.476562 C 74.152344 100.699219 131.707031 47.519531 202.449219 47.519531 C 273.179688 47.519531 330.75 100.699219 330.75 166.070312 C 330.75 231.441406 273.179688 284.628906 202.449219 284.628906 Z M 57.21875 228.960938 C 65.941406 253.492188 115.722656 266.390625 202.449219 266.390625 C 263.097656 266.390625 312.417969 221.371094 312.417969 166.070312 C 312.417969 110.75 263.097656 65.753906 202.449219 65.753906 C 141.804688 65.753906 92.484375 110.75 92.484375 166.070312 C 92.59375 166.070312 97.15625 196.730469 80.878906 215.644531 C 74.8125 222.6875 66.898438 227.152344 57.21875 228.960938 Z M 57.21875 228.960938 " fill-opacity="1" fill-rule="nonzero"/></g><g clip-path="url(#3253a0cddc)"><path fill="#64b8b1" d="M 275.765625 284.625 C 275.765625 304.773438 259.355469 321.105469 239.109375 321.105469 C 218.863281 321.105469 202.449219 304.773438 202.449219 284.625 C 202.449219 264.480469 218.863281 248.144531 239.109375 248.144531 C 259.351562 248.144531 275.765625 264.480469 275.765625 284.625 Z M 275.765625 284.625 " fill-opacity="1" fill-rule="nonzero"/></g><g clip-path="url(#84f40ec220)"><path fill="#64b8b1" d="M 165.792969 284.625 C 165.792969 304.773438 149.386719 321.105469 129.140625 321.105469 C 108.894531 321.105469 92.484375 304.773438 92.484375 284.625 C 92.484375 264.480469 108.894531 248.144531 129.140625 248.144531 C 149.386719 248.144531 165.792969 264.480469 165.792969 284.625 Z M 165.792969 284.625 " fill-opacity="1" fill-rule="nonzero"/></g><path fill="#64b8b1" d="M 166.164062 147.832031 C 161.105469 147.832031 156.902344 143.746094 156.902344 138.710938 C 156.902344 133.675781 160.917969 129.589844 165.976562 129.589844 L 166.164062 129.589844 C 171.222656 129.589844 175.328125 133.675781 175.328125 138.710938 C 175.328125 143.746094 171.222656 147.832031 166.164062 147.832031 Z M 166.164062 147.832031 " fill-opacity="1" fill-rule="nonzero"/><path fill="#64b8b1" d="M 239.476562 147.832031 C 234.429688 147.832031 230.21875 143.746094 230.21875 138.710938 C 230.21875 133.675781 234.226562 129.589844 239.285156 129.589844 L 239.476562 129.589844 C 244.53125 129.589844 248.636719 133.675781 248.636719 138.710938 C 248.636719 143.746094 244.53125 147.832031 239.476562 147.832031 Z M 239.476562 147.832031 " fill-opacity="1" fill-rule="nonzero"/><path fill="#64b8b1" d="M 202.449219 229.90625 C 176.019531 229.90625 153.5 211.996094 147.6875 186.316406 C 146.585938 181.390625 149.683594 176.519531 154.617188 175.410156 C 159.566406 174.351562 164.457031 177.378906 165.574219 182.304688 C 169.480469 199.59375 184.65625 211.667969 202.449219 211.667969 C 220.265625 211.667969 235.421875 199.59375 239.328125 182.304688 C 240.460938 177.398438 245.304688 174.3125 250.285156 175.410156 C 255.234375 176.519531 258.335938 181.390625 257.234375 186.316406 C 251.425781 211.980469 228.898438 229.90625 202.449219 229.90625 Z M 202.449219 229.90625 " fill-opacity="1" fill-rule="nonzero"/></svg>